<svg width="24" height="24" viewBox="0 0 24 24" fill="none"
     xmlns="http://www.w3.org/2000/svg">
    <g clip-path="url(#clip0_519_120)">
        <path d="M12 0C18.6274 0 24 5.37258 24 12C24 18.6274 18.6274 24 12 24C5.37258 24 0 18.6274 0 12C0 5.37258 5.37258 0 12 0ZM11.9922 5.12012C7.65017 5.12012 5.37519 8.07636 5.375 11.7207C5.375 15.2277 7.44293 18.0478 10.958 18.0479C14.4732 18.0479 15.3694 15.2282 15.5762 13.7842V17.7725H18.4316V11.4463H11.9229V12.6836H15.0244C14.6798 14.1965 13.8528 15.71 11.9229 15.71C9.78641 15.7098 8.40836 13.853 8.4082 11.584C8.4082 9.31478 9.78629 7.45812 11.9229 7.45801C13.9216 7.45801 14.7494 8.90156 14.8184 9.86426H18.0576C17.9886 8.1451 16.4719 5.12021 11.9922 5.12012Z"
              fill="#FEFEFE"/>
    </g>
    <defs>
        <clipPath id="clip0_519_120">
            <rect width="24" height="24" fill="white"/>
        </clipPath>
    </defs>
</svg>
