<svg width="32" height="32" viewBox="0 0 32 32" fill="none" xmlns="http://www.w3.org/2000/svg">
<path d="M15.3429 26.9475C15.6708 26.6196 16.2023 26.6196 16.5301 26.9475V26.9475C17.3497 27.767 17.3497 29.0958 16.5301 29.9154V29.9154C16.2023 30.2432 15.6708 30.2432 15.3429 29.9154L14.4942 29.0667C14.1434 28.7158 14.1434 28.147 14.4942 27.7962L15.3429 26.9475Z" fill="#F8F8F8"/>
<path d="M8.56265 7.302C8.92107 6.92899 9.52037 6.93556 9.87125 7.31568L11.3087 8.87329C11.6455 9.23829 11.6225 9.80753 11.257 10.1438L4.48258 16.3752L10.7121 23.3137C11.011 23.6467 10.9972 24.1555 10.6808 24.4719C10.3667 24.7861 9.86198 24.8026 9.52847 24.509L0.734529 16.7678C0.345465 16.4251 0.325932 15.8249 0.692537 15.4583L8.56265 7.302Z" fill="#F8F8F8"/>
<path d="M19.7933 5.25445C20.1442 4.90387 20.7131 4.90371 21.0638 5.25445C24.7072 8.89779 32.0004 16.1353 32.0004 16.1353L21.1869 26.9478C20.6611 27.4736 20.0805 27.112 19.6625 26.6939C18.76 25.7898 21.6869 22.7075 23 21C24.5898 18.9328 26.1693 16.3707 26.1693 16.3707L18.5404 7.69586C18.228 7.34022 18.245 6.80328 18.5795 6.46832L19.7933 5.25445Z" fill="#F8F8F8"/>
<rect x="15.937" y="17.1702" width="4.5" height="4.5" rx="0.898345" transform="rotate(45 15.937 17.1702)" fill="#3CF99A"/>
<path d="M11.2593 13.7629C11.6101 13.4121 12.1789 13.4121 12.5298 13.7629L14.4413 15.6744C14.7921 16.0253 14.7921 16.5941 14.4413 16.9449L13.165 18.2212C12.4633 18.9228 11.3257 18.9228 10.6241 18.2212L9.34778 16.9449C8.99695 16.5941 8.99695 16.0253 9.34778 15.6744L11.2593 13.7629Z" fill="#3CF99A"/>
<rect x="15.937" y="9.08508" width="4.5" height="4.5" rx="0.898345" transform="rotate(45 15.937 9.08508)" fill="#3CF99A"/>
<path d="M19.3443 13.7629C19.6951 13.4121 20.2639 13.4121 20.6147 13.7629L22.5262 15.6744C22.8771 16.0253 22.8771 16.5941 22.5262 16.9449L20.6147 18.8564C20.2639 19.2072 19.6951 19.2072 19.3443 18.8564L18.3856 17.8977C17.5085 17.0207 17.5085 15.5987 18.3856 14.7216L19.3443 13.7629Z" fill="#3CF99A"/>
<path d="M15.3013 1.63523C15.6521 1.2844 16.2209 1.2844 16.5717 1.63523L18.4833 3.54675C18.8341 3.89758 18.8341 4.46638 18.4833 4.81721L16.5717 6.72874C16.2209 7.07956 15.6521 7.07956 15.3013 6.72874L14.3426 5.77004C13.4655 4.89298 13.4655 3.47098 14.3426 2.59392L15.3013 1.63523Z" fill="#F8F8F8"/>
</svg>
