<svg xmlns="http://www.w3.org/2000/svg" xmlns:xlink="http://www.w3.org/1999/xlink" id="Layer_1" x="0" y="0" enable-background="new 0 0 180 190.5" version="1.1" viewBox="0 0 180 190.5" xml:space="preserve"><path fill="#fafafa" id="SVGID_1_" d="M25,27.4h123.6c2.7,5.2,8.2,8.8,14.5,8.8c9,0,16.3-7.3,16.3-16.3S172.1,3.6,163,3.6 c-6.8,0-12.7,4.2-15.1,10.2H25c-11.9,0-21.3,9.1-21.3,20.6V166c0,11.7,9.8,21.7,21.3,21.7h131.5c11.6,0,21-9.7,21-21.7v-78 c0-11.7-9.4-21.3-21-21.3h-78c-11.9,0-22,9.8-22,21.3v24.5c0,11.4,9.9,20.6,22,20.6h27.2c2.4,6,8.3,10.2,15.1,10.2 c9,0,16.3-7.3,16.3-16.3c0-9-7.3-16.3-16.3-16.3c-6.3,0-11.8,3.6-14.5,8.8H78.5c-4,0-8.3-2.7-8.3-7V87.9c0-4,4-7.7,8.3-7.7h78 c4.1,0,7.4,3.4,7.4,7.7v78c0,4.3-3.4,8-7.4,8H25c-4.1,0-7.7-3.8-7.7-8V34.4C17.3,30.5,20.6,27.4,25,27.4z M163,12.1 c4.3,0,7.8,3.5,7.8,7.8c0,4.3-3.5,7.8-7.8,7.8c-4.3,0-7.8-3.5-7.8-7.8C155.2,15.6,158.7,12.1,163,12.1z M120.9,119.2 c4.3,0,7.8,3.5,7.8,7.8c0,4.3-3.5,7.8-7.8,7.8c-4.3,0-7.8-3.5-7.8-7.8C113.1,122.6,116.6,119.2,120.9,119.2z"/></svg>