<svg width="128" height="128" viewBox="0 0 128 128" fill="none" xmlns="http://www.w3.org/2000/svg">
<g clip-path="url(#clip0_2502_149707)">
<mask id="mask0_2502_149707" style="mask-type:alpha" maskUnits="userSpaceOnUse" x="1" y="4" width="152" height="121">
<path d="M145.5 21H152.5V41.5H142.5L145.5 21Z" fill="#CCCCCC"/>
<path d="M40 4.5L18 13C12.5 20 1.5 34.2 1.5 35C1.5 35.8 3.16667 48.3333 4 54.5L5.5 108L28.5 123.5L51.5 125L76.5 118L113 120L124 97.5L123 61V27.5L114 13L92.5 4.5L66 7.5L51.5 9L40 4.5Z" fill="#CCCCCC"/>
</mask>
<g mask="url(#mask0_2502_149707)">
<rect x="0.5" width="124" height="125" fill="#686868"/>
<g filter="url(#filter0_di_2502_149707)">
<path d="M22 10.5H12.5L-20 17.5L-7 134.5L136.5 132L125 104.5L116 79.5L120 44L113.5 26.5L107.5 25.5L105 21.5L93 28L67 17.5L44.5 25.5L22 10.5Z" fill="#4D4D4D"/>
</g>
<g filter="url(#filter1_di_2502_149707)">
<path d="M26 17L41 8.5L27 -5H-6V129.5L127.5 132L125.5 103L116 111.5L105.5 101.5L76 95L60.5 106L32 110L16.5 100.5L11.5 66.5L15.5 34.5L26 17Z" fill="#3D3D3D"/>
</g>
<g filter="url(#filter2_d_2502_149707)">
<path d="M6.5 42.5L4.5 34.5L19 13L1.5 -1.5L-1.5 -2V126H126.5V117L123 99.5L111 116L96.5 112.5L76 116L54.5 119.5L29 116L22.5 115L19 110L14.5 109.5L11 106L9.5 89L7.5 58L6.5 42.5Z" fill="#262626"/>
</g>
<path d="M-3.5 16L-1.5 -2H126.5V126H112.5L119 118L121 115L123 95L119 75L121 43L119 34V26L113.5 21.5H109.5V17.5L106 11.5H89.5L77.5 13L71.5 11.5L52.5 12L40.5 8L23 10L6.5 13L-3.5 16Z" fill="#9D9D9D"/>
</g>
<g filter="url(#filter3_dd_2502_149707)">
<path d="M27.75 49.2812L27.75 91.3906L21.625 91.3906L21.625 49.2812L27.75 49.2812Z" fill="#EEEEEE"/>
<path d="M66.0313 91.4335H59.6005V67.8524H42.4502V61.4209H72.4628V67.8524H66.0313V91.4335Z" fill="#EEEEEE"/>
<path d="M90.6845 91.4335H84.253V67.8524H75.6786V61.4209H98.1875L103.011 67.8524H90.6845V91.4335Z" fill="#EEEEEE"/>
<path d="M72.9985 45.8789L66.5673 42.1273L69.2469 36.232L69.7829 32.4805L36.306 57.1336H46.4888H65.7826L62.2798 52.3102L72.9985 45.8789Z" fill="#EEEEEE"/>
<path d="M85.3252 56.5975L95.508 50.7021V56.0615L96.2927 58.2053H86.4578L85.3252 56.5975Z" fill="#EEEEEE"/>
<path d="M91.0791 53.5515L86.0023 57.4998L69.294 36.0173L34.2184 65.4803L53.9382 87.124L57.9923 91.4335L49.1838 91.4555L24.9557 64.8638L70.2717 26.7986L91.0791 53.5515Z" fill="#EEEEEE"/>
<path d="M112.023 63.7907L106.861 67.6263L94.8559 51.4652C93.7299 52.3331 92.5078 53.2925 91.3754 54.195C90.3394 55.0207 89.393 55.7859 88.6823 56.3678C87.8759 57.028 87.5607 57.3017 87.5989 57.2635L83.0515 52.7161C83.3041 52.4635 83.9676 51.9157 84.6082 51.3912C85.3444 50.7885 86.3132 50.0054 87.3671 49.1654C89.4605 47.4969 91.9506 45.553 93.6252 44.3436L96.1972 42.4863L112.023 63.7907Z" fill="#EEEEEE"/>
</g>
</g>
<defs>
<filter id="filter0_di_2502_149707" x="-20" y="5.5" width="157.5" height="129" filterUnits="userSpaceOnUse" color-interpolation-filters="sRGB">
<feFlood flood-opacity="0" result="BackgroundImageFix"/>
<feColorMatrix in="SourceAlpha" type="matrix" values="0 0 0 0 0 0 0 0 0 0 0 0 0 0 0 0 0 0 127 0" result="hardAlpha"/>
<feOffset dx="1" dy="-5"/>
<feComposite in2="hardAlpha" operator="out"/>
<feColorMatrix type="matrix" values="0 0 0 0 0 0 0 0 0 0 0 0 0 0 0 0 0 0 0.08 0"/>
<feBlend mode="normal" in2="BackgroundImageFix" result="effect1_dropShadow_2502_149707"/>
<feBlend mode="normal" in="SourceGraphic" in2="effect1_dropShadow_2502_149707" result="shape"/>
<feColorMatrix in="SourceAlpha" type="matrix" values="0 0 0 0 0 0 0 0 0 0 0 0 0 0 0 0 0 0 127 0" result="hardAlpha"/>
<feOffset dx="-1" dy="2"/>
<feComposite in2="hardAlpha" operator="arithmetic" k2="-1" k3="1"/>
<feColorMatrix type="matrix" values="0 0 0 0 1 0 0 0 0 1 0 0 0 0 1 0 0 0 0.05 0"/>
<feBlend mode="normal" in2="shape" result="effect2_innerShadow_2502_149707"/>
</filter>
<filter id="filter1_di_2502_149707" x="-6" y="-6" width="134.5" height="138" filterUnits="userSpaceOnUse" color-interpolation-filters="sRGB">
<feFlood flood-opacity="0" result="BackgroundImageFix"/>
<feColorMatrix in="SourceAlpha" type="matrix" values="0 0 0 0 0 0 0 0 0 0 0 0 0 0 0 0 0 0 127 0" result="hardAlpha"/>
<feOffset dx="1" dy="-1"/>
<feComposite in2="hardAlpha" operator="out"/>
<feColorMatrix type="matrix" values="0 0 0 0 1 0 0 0 0 1 0 0 0 0 1 0 0 0 0.04 0"/>
<feBlend mode="normal" in2="BackgroundImageFix" result="effect1_dropShadow_2502_149707"/>
<feBlend mode="normal" in="SourceGraphic" in2="effect1_dropShadow_2502_149707" result="shape"/>
<feColorMatrix in="SourceAlpha" type="matrix" values="0 0 0 0 0 0 0 0 0 0 0 0 0 0 0 0 0 0 127 0" result="hardAlpha"/>
<feOffset dx="-2" dy="1"/>
<feComposite in2="hardAlpha" operator="arithmetic" k2="-1" k3="1"/>
<feColorMatrix type="matrix" values="0 0 0 0 0 0 0 0 0 0 0 0 0 0 0 0 0 0 0.08 0"/>
<feBlend mode="normal" in2="shape" result="effect2_innerShadow_2502_149707"/>
</filter>
<filter id="filter2_d_2502_149707" x="-1.5" y="-3" width="129" height="129" filterUnits="userSpaceOnUse" color-interpolation-filters="sRGB">
<feFlood flood-opacity="0" result="BackgroundImageFix"/>
<feColorMatrix in="SourceAlpha" type="matrix" values="0 0 0 0 0 0 0 0 0 0 0 0 0 0 0 0 0 0 127 0" result="hardAlpha"/>
<feOffset dx="1" dy="-1"/>
<feComposite in2="hardAlpha" operator="out"/>
<feColorMatrix type="matrix" values="0 0 0 0 1 0 0 0 0 1 0 0 0 0 1 0 0 0 0.05 0"/>
<feBlend mode="normal" in2="BackgroundImageFix" result="effect1_dropShadow_2502_149707"/>
<feBlend mode="normal" in="SourceGraphic" in2="effect1_dropShadow_2502_149707" result="shape"/>
</filter>
<filter id="filter3_dd_2502_149707" x="11.5" y="11" width="102" height="103" filterUnits="userSpaceOnUse" color-interpolation-filters="sRGB">
<feFlood flood-opacity="0" result="BackgroundImageFix"/>
<feColorMatrix in="SourceAlpha" type="matrix" values="0 0 0 0 0 0 0 0 0 0 0 0 0 0 0 0 0 0 127 0" result="hardAlpha"/>
<feOffset dx="-2" dy="3"/>
<feColorMatrix type="matrix" values="0 0 0 0 0 0 0 0 0 0 0 0 0 0 0 0 0 0 0.1 0"/>
<feBlend mode="normal" in2="BackgroundImageFix" result="effect1_dropShadow_2502_149707"/>
<feColorMatrix in="SourceAlpha" type="matrix" values="0 0 0 0 0 0 0 0 0 0 0 0 0 0 0 0 0 0 127 0" result="hardAlpha"/>
<feOffset dx="-4" dy="5"/>
<feColorMatrix type="matrix" values="0 0 0 0 0 0 0 0 0 0 0 0 0 0 0 0 0 0 0.1 0"/>
<feBlend mode="normal" in2="effect1_dropShadow_2502_149707" result="effect2_dropShadow_2502_149707"/>
<feBlend mode="normal" in="SourceGraphic" in2="effect2_dropShadow_2502_149707" result="shape"/>
</filter>
<clipPath id="clip0_2502_149707">
<rect width="128" height="128" rx="18" fill="white"/>
</clipPath>
</defs>
</svg>
