<svg width="128" height="128" viewBox="0 0 128 128" fill="none" xmlns="http://www.w3.org/2000/svg">
<g clip-path="url(#clip0_2464_145240)">
<rect width="128" height="128" fill="#F8F8F8"/>
<path fill-rule="evenodd" clip-rule="evenodd" d="M120 31V43H107.5V61L95.5 52.0773V43H83.5L67 31H120Z" fill="#0D0D0D"/>
<path d="M18.5 31V48.5752L60.5 31L120 75H101L65.4922 49.6719V75H53.4922V46.5469L25 59.5L47.5 75L28.5 75L18.5 68.0635V75L7 75V31L18.5 31Z" fill="#0D0D0D"/>
<path d="M52 50L43 51L45.5 47L75.5 48.5V52L68.5 50.5L62.5 61L56.5 57.5L52 50Z" fill="#0D0D0D"/>
<path d="M61.4854 35.0254C64.05 37.0181 67.5702 39.598 70.5029 41.6982C71.967 42.7467 73.2747 43.6695 74.2334 44.332C74.7144 44.6645 75.098 44.9243 75.3652 45.1006C75.5012 45.1902 75.5911 45.2474 75.6416 45.2783C75.6688 45.295 75.6643 45.2918 75.6396 45.2783C75.6277 45.2718 75.5914 45.2521 75.5391 45.2275C75.5192 45.2182 75.4299 45.1753 75.2988 45.1309L75.1553 45.0869L73.9463 49.9375L64.7236 47.8408L62.1035 52.2725L59.9355 55.9385L57.792 52.2588L53.7646 45.3467L38.0566 48.9375L36.5254 44.1973L58.9775 34.6973L60.3281 34.126L61.4854 35.0254Z" fill="#F8F8F8" stroke="#0D0D0D" stroke-width="5" stroke-linecap="round"/>
<path d="M88.9057 97.9939L95 97.9939L96.5 94.4999L90.5 90.5L87 91L84 93.9999L82.7673 95.7603L88.9057 97.9939Z" fill="#0D0D0D"/>
<path d="M76 69.5L75 78L70 84L79 88.5L95.5 85.5L84 73.5L76 69.5Z" fill="#0D0D0D"/>
<path d="M6.5 83.125C6.5 84.375 6.5 85.625 6.5 86.875C8.43204 86.9338 10.4271 86.9998 12.3981 87.0701C20.4704 87.3618 28.5529 87.7145 36.5873 88.2349C40.6 88.4986 44.6078 88.8019 48.5816 89.2203C50.5566 89.431 52.515 89.6678 54.4198 89.9783C55.3979 90.1386 56.3094 90.3107 57.1524 90.5225C57.369 90.5771 57.5464 90.6267 57.7328 90.6832C57.9331 90.7434 58.0959 90.8008 58.2092 90.848C58.3455 90.9013 58.4281 90.9548 58.3537 90.9248C58.3064 90.9014 58.1909 90.8442 57.9954 90.6701C57.8129 90.5135 57.236 89.9006 57.1142 88.9232C57.0315 88.4761 57.199 87.9315 57.3053 87.7606C57.4106 87.5721 57.4096 87.5983 57.3141 87.659C57.1209 87.7974 56.6489 88.066 56.1256 88.3054C55.0632 88.7969 53.7558 89.2755 52.4074 89.7852C51.0518 90.3004 49.6252 90.8374 48.1079 91.5927C46.6146 92.4377 44.8033 93.1024 43.1437 95.9431C42.475 97.1595 42.2083 98.9514 42.518 100.353C43.0571 102.937 44.9014 104.275 46.0228 104.944C47.2706 105.662 48.243 105.99 49.228 106.307C51.1581 106.9 52.8757 107.231 54.5774 107.552C57.9752 108.174 61.1727 108.649 64.2642 109.264C70.2019 110.297 76.8913 112.802 77.4505 114.867C77.6282 115.371 77.6059 115.661 77.5 116.5C82.1667 116.5 86.8333 116.5 91.5 116.5C91.4218 113.385 90.2741 109.674 88.0673 107.01C80.035 98.6646 72.218 99.752 65.5444 98.9374C62.1481 98.7423 58.8591 98.6876 55.7394 98.4861C54.1983 98.3846 52.6912 98.2429 51.454 97.9995C50.8433 97.8819 50.3137 97.7232 50.0786 97.6321C49.9724 97.5981 49.959 97.583 50.0759 97.7275C50.1903 97.8647 50.4188 98.238 50.482 98.6467C50.5234 98.8508 50.4244 99.3721 50.3073 99.5043C50.1748 99.679 50.2594 99.4574 50.5462 99.211C50.8273 98.9557 51.262 98.6515 51.7574 98.3561C52.7489 97.7631 53.9705 97.1874 55.2484 96.6022C56.5359 96.0084 57.8896 95.4243 59.3691 94.6198C60.1176 94.2014 60.8973 93.7578 61.801 92.9798C62.2451 92.5851 62.76 92.0814 63.2251 91.2897C63.7026 90.5036 64.0632 89.2456 63.8858 88.0768C63.7444 86.8795 62.9924 86.0106 62.6285 85.692C62.2742 85.3701 61.9514 85.1685 61.6508 85.004C61.1449 84.7363 60.7843 84.6113 60.3899 84.4813C60.0734 84.3813 59.7526 84.2955 59.4188 84.2164C59.1096 84.1442 58.8487 84.0915 58.5487 84.0346C57.3963 83.8211 56.3602 83.6967 55.2648 83.5807C53.1483 83.3645 51.1019 83.2403 49.0483 83.1391C44.9274 82.9419 40.8589 82.8599 36.7927 82.8142C28.6582 82.7305 20.5373 82.8063 12.4273 82.9756C10.4471 83.0179 8.4442 83.0665 6.5 83.125Z" fill="#0D0D0D"/>
</g>
<defs>
<clipPath id="clip0_2464_145240">
<rect width="128" height="128" fill="white"/>
</clipPath>
</defs>
</svg>
