<svg width="128" height="128" viewBox="0 0 128 128" fill="none" xmlns="http://www.w3.org/2000/svg">
<rect width="128" height="128" fill="#111111"/>
<path d="M29.25 51.2812L29.25 93.3906L23.125 93.3906L23.125 51.2812L29.25 51.2812Z" fill="#F5F5F5"/>
<path d="M67.5313 93.4334H61.1005V69.8523H43.9502V63.4208H73.9628V69.8523H67.5313V93.4334Z" fill="#F5F5F5"/>
<path d="M92.1845 93.4334H85.753V69.8523H77.1786V63.4208H99.6875L104.511 69.8523H92.1845V93.4334Z" fill="#F5F5F5"/>
<path d="M74.4985 47.8788L68.0673 44.1272L70.7469 38.2319L71.2829 34.4803L37.806 59.1335H47.9888H67.2826L63.7798 54.31L74.4985 47.8788Z" fill="#F5F5F5"/>
<path d="M86.8252 58.5976L97.008 52.7023V58.0616L97.7927 60.2054H87.9578L86.8252 58.5976Z" fill="#F5F5F5"/>
<path d="M92.5791 55.5516L87.5023 59.5L70.794 38.0175L35.7184 67.4804L55.4382 89.1241L59.4923 93.4336L50.6838 93.4556L26.4557 66.8639L71.7717 28.7987L92.5791 55.5516Z" fill="#F5F5F5"/>
<path d="M113.523 65.7907L108.361 69.6263L96.3559 53.4652C95.2299 54.3331 94.0078 55.2925 92.8754 56.195C91.8394 57.0207 90.893 57.7859 90.1823 58.3678C89.3759 59.028 89.0607 59.3017 89.0989 59.2635L84.5515 54.7161C84.8041 54.4635 85.4676 53.9157 86.1082 53.3912C86.8444 52.7885 87.8132 52.0054 88.8671 51.1654C90.9605 49.4969 93.4506 47.553 95.1252 46.3436L97.6972 44.4863L113.523 65.7907Z" fill="#F5F5F5"/>
</svg>
