<svg width="107" xmlns="http://www.w3.org/2000/svg" height="66" id="screenshot-9ec61aa1-8ad6-80b1-8006-c1fd526f5348" viewBox="0 0 107 66" xmlns:xlink="http://www.w3.org/1999/xlink" fill="none" version="1.1"><g id="shape-9ec61aa1-8ad6-80b1-8006-c1fd526f5348"><defs><clipPath id="frame-clip-9ec61aa1-8ad6-80b1-8006-c1fd526f5348-render-1" class="frame-clip frame-clip-def"><rect rx="0" ry="0" x="0" y="0" width="107" height="66" transform="matrix(1.000000, 0.000000, 0.000000, 1.000000, 0.000000, 0.000000)"/></clipPath></defs><g class="frame-container-wrapper"><g class="frame-container-blur"><g class="frame-container-shadows"><g clip-path="url(#frame-clip-9ec61aa1-8ad6-80b1-8006-c1fd526f5348-render-1)" fill="none"><g class="fills" id="fills-9ec61aa1-8ad6-80b1-8006-c1fd526f5348"><rect rx="0" ry="0" x="0" y="0" width="107" height="66" transform="matrix(1.000000, 0.000000, 0.000000, 1.000000, 0.000000, 0.000000)" class="frame-background"/></g><g class="frame-children"><g id="shape-d64fc2e5-d62f-80e9-8006-c1f18f5ac52d"><g class="fills" id="fills-d64fc2e5-d62f-80e9-8006-c1f18f5ac52d"><rect rx="6" ry="6" x="0" y="15" transform="matrix(1.000000, 0.000000, 0.000000, 1.000000, 0.000000, 0.000000)" width="107" height="36" style="fill: rgb(204, 204, 204); fill-opacity: 1;"/></g></g><g id="shape-9ec61aa1-8ad6-80b1-8006-c1fd89692cc2"><g class="fills" id="fills-9ec61aa1-8ad6-80b1-8006-c1fd89692cc2"><ellipse cx="53.5" cy="5.5" rx="5.5" ry="5.5" transform="matrix(1.000000, 0.000000, 0.000000, 1.000000, 0.000000, 0.000000)" style="fill: rgb(176, 176, 176); fill-opacity: 1;"/></g><g id="strokes-8ed9800c-f675-8012-8006-c2eca791c374-9ec61aa1-8ad6-80b1-8006-c1fd89692cc2" class="strokes"><g class="inner-stroke-shape" transform="matrix(1.000000, 0.000000, 0.000000, 1.000000, 0.000000, 0.000000)"><defs><clipPath id="inner-stroke-render-3-9ec61aa1-8ad6-80b1-8006-c1fd89692cc2-0"><use href="#stroke-shape-render-3-9ec61aa1-8ad6-80b1-8006-c1fd89692cc2-0"/></clipPath><ellipse cx="53.5" cy="5.5" rx="5.5" ry="5.5" id="stroke-shape-render-3-9ec61aa1-8ad6-80b1-8006-c1fd89692cc2-0" style="fill: none; stroke-width: 0.2; stroke: rgb(173, 173, 173); stroke-opacity: 1;"/></defs><use href="#stroke-shape-render-3-9ec61aa1-8ad6-80b1-8006-c1fd89692cc2-0" clip-path="url('#inner-stroke-render-3-9ec61aa1-8ad6-80b1-8006-c1fd89692cc2-0')"/></g></g></g><g id="shape-9ec61aa1-8ad6-80b1-8006-c1fda75ced70"><g class="fills" id="fills-9ec61aa1-8ad6-80b1-8006-c1fda75ced70"><ellipse cx="53.5" cy="60.5" rx="5.5" ry="5.5" transform="matrix(1.000000, 0.000000, 0.000000, 1.000000, 0.000000, 0.000000)" style="fill: rgb(176, 176, 176); fill-opacity: 1;"/></g><g id="strokes-8ed9800c-f675-8012-8006-c2eca792b54f-9ec61aa1-8ad6-80b1-8006-c1fda75ced70" class="strokes"><g class="inner-stroke-shape" transform="matrix(1.000000, 0.000000, 0.000000, 1.000000, 0.000000, 0.000000)"><defs><clipPath id="inner-stroke-render-4-9ec61aa1-8ad6-80b1-8006-c1fda75ced70-0"><use href="#stroke-shape-render-4-9ec61aa1-8ad6-80b1-8006-c1fda75ced70-0"/></clipPath><ellipse cx="53.5" cy="60.5" rx="5.5" ry="5.5" id="stroke-shape-render-4-9ec61aa1-8ad6-80b1-8006-c1fda75ced70-0" style="fill: none; stroke-width: 0.2; stroke: rgb(173, 173, 173); stroke-opacity: 1;"/></defs><use href="#stroke-shape-render-4-9ec61aa1-8ad6-80b1-8006-c1fda75ced70-0" clip-path="url('#inner-stroke-render-4-9ec61aa1-8ad6-80b1-8006-c1fda75ced70-0')"/></g></g></g><g id="shape-9ec61aa1-8ad6-80b1-8006-c1fdc5a89497"><g class="fills" id="fills-9ec61aa1-8ad6-80b1-8006-c1fdc5a89497"><path d="M21,15.5L18.2845458984375,28.51422119140625L14,50.5"/></g><g id="strokes-8ed9800c-f675-8012-8006-c2eca7934f44-9ec61aa1-8ad6-80b1-8006-c1fdc5a89497" class="strokes"><g class="stroke-shape"><path d="M21,15.5L18.2845458984375,28.51422119140625L14,50.5" style="fill: none; stroke-width: 1; stroke: rgb(148, 148, 148); stroke-opacity: 1;"/></g></g></g><g id="shape-9ec61aa1-8ad6-80b1-8006-c1fe808b3205"><g class="fills" id="fills-9ec61aa1-8ad6-80b1-8006-c1fe808b3205"><path d="M78,15.5L75.2845458984375,28.51422119140625L71,50.5"/></g><g id="strokes-8ed9800c-f675-8012-8006-c2eca793eabf-9ec61aa1-8ad6-80b1-8006-c1fe808b3205" class="strokes"><g class="stroke-shape"><path d="M78,15.5L75.2845458984375,28.51422119140625L71,50.5" style="fill: none; stroke-width: 1; stroke: rgb(148, 148, 148); stroke-opacity: 1;"/></g></g></g><g id="shape-9ec61aa1-8ad6-80b1-8006-c1fe742c5580"><g class="fills" id="fills-9ec61aa1-8ad6-80b1-8006-c1fe742c5580"><path d="M35,15.5L32.2845458984375,28.51422119140625L28,50.5"/></g><g id="strokes-8ed9800c-f675-8012-8006-c2eca7943e13-9ec61aa1-8ad6-80b1-8006-c1fe742c5580" class="strokes"><g class="stroke-shape"><path d="M35,15.5L32.2845458984375,28.51422119140625L28,50.5" style="fill: none; stroke-width: 1; stroke: rgb(148, 148, 148); stroke-opacity: 1;"/></g></g></g><g id="shape-9ec61aa1-8ad6-80b1-8006-c1fe148cdae7"><g class="fills" id="fills-9ec61aa1-8ad6-80b1-8006-c1fe148cdae7"><rect rx="6" ry="6" x="0" y="15" transform="matrix(1.000000, 0.000000, 0.000000, 1.000000, 0.000000, 0.000000)" width="107" height="36"/></g><g id="strokes-8ed9800c-f675-8012-8006-c2eca7945a16-9ec61aa1-8ad6-80b1-8006-c1fe148cdae7" class="strokes"><g class="inner-stroke-shape" transform="matrix(1.000000, 0.000000, 0.000000, 1.000000, 0.000000, 0.000000)"><defs><clipPath id="inner-stroke-render-8-9ec61aa1-8ad6-80b1-8006-c1fe148cdae7-0"><use href="#stroke-shape-render-8-9ec61aa1-8ad6-80b1-8006-c1fe148cdae7-0"/></clipPath><rect rx="6" ry="6" x="0" y="15" width="107" height="36" id="stroke-shape-render-8-9ec61aa1-8ad6-80b1-8006-c1fe148cdae7-0" style="fill: none; stroke-width: 2; stroke: rgb(148, 148, 148); stroke-opacity: 1;"/></defs><use href="#stroke-shape-render-8-9ec61aa1-8ad6-80b1-8006-c1fe148cdae7-0" clip-path="url('#inner-stroke-render-8-9ec61aa1-8ad6-80b1-8006-c1fe148cdae7-0')"/></g></g></g><g id="shape-9ec61aa1-8ad6-80b1-8006-c1fe808b3204"><g class="fills" id="fills-9ec61aa1-8ad6-80b1-8006-c1fe808b3204"><path d="M92,15.5L89.2845458984375,28.51422119140625L85,50.5"/></g><g id="strokes-8ed9800c-f675-8012-8006-c2eca794e2b8-9ec61aa1-8ad6-80b1-8006-c1fe808b3204" class="strokes"><g class="stroke-shape"><path d="M92,15.5L89.2845458984375,28.51422119140625L85,50.5" style="fill: none; stroke-width: 1; stroke: rgb(148, 148, 148); stroke-opacity: 1;"/></g></g></g><g id="shape-9ec61aa1-8ad6-80b1-8006-c2eafd417444" rx="0" ry="0" style="fill: rgb(0, 0, 0);"><g id="shape-9ec61aa1-8ad6-80b1-8006-c2eafd417445" style="display: none;"><g class="fills" id="fills-9ec61aa1-8ad6-80b1-8006-c2eafd417445"><rect width="22" height="22" x="42" transform="matrix(1.000000, 0.000000, 0.000000, 1.000000, 0.000000, 0.000000)" style="fill: none;" ry="0" fill="none" rx="0" y="22"/></g></g><g id="shape-9ec61aa1-8ad6-80b1-8006-c2eafd417446"><g class="fills" id="fills-9ec61aa1-8ad6-80b1-8006-c2eafd417446"><path d="M42,39.998748779296875L42,44L45.50531005859375,44C43.91156005859375,43.10894775390625,42.67364501953125,41.69586181640625,42,39.998748779296875L42,39.998748779296875M56.70513916015625,35.823333740234375C56.70513916015625,32.12274169921875,53.72320556640625,28.563323974609375,49.2701416015625,28.408416748046875C46.10943603515625,28.30023193359375,43.65093994140625,29.457977294921875,42,31.1712646484375L42,35.02947998046875C43.12200927734375,31.7762451171875,46.21209716796875,30.30133056640625,48.80072021484375,30.328826904296875C52.03741455078125,30.366424560546875,54.5308837890625,32.80657958984375,54.55279541015625,35.5721435546875C54.55279541015625,38.2103271484375,53.46844482421875,40.148193359375,50.486572265625,40.62847900390625C48.8603515625,40.89984130859375,46.31744384765625,39.93731689453125,46.420166015625,37.48065185546875C46.479736328125,36.214752197265625,47.46331787109375,35.49884033203125,48.5889892578125,35.5501708984375C47.4825439453125,37.0333251953125,48.946533203125,38.117767333984375,49.98236083984375,37.897735595703125C51.052734375,37.66033935546875,51.80706787109375,36.70050048828125,51.784423828125,35.604248046875C51.784423828125,34.6719970703125,50.90625,33.1640625,48.72918701171875,33.220916748046875C46.03790283203125,33.28326416015625,44.343017578125,35.222015380859375,44.28338623046875,37.6181640625C44.2183837890625,40.62481689453125,47.03985595703125,42.62042236328125,49.94293212890625,42.644256591796875C54.1898193359375,42.698333740234375,56.72174072265625,39.908905029296875,56.70513916015625,35.823333740234375L56.70513916015625,35.823333740234375M42,22L42,28.33050537109375C44.08978271484375,26.74664306640625,46.64813232421875,25.904998779296875,49.2701416015625,25.93890380859375C55.50439453125,25.93890380859375,59.4761962890625,30.3040771484375,59.4735107421875,35.806854248046875C59.4735107421875,39.62933349609375,57.68963623046875,42.505828857421875,54.894775390625,44L64,44L64,22L42,22L42,22" style="fill: rgb(239, 103, 4); fill-opacity: 1;"/></g></g></g></g></g></g></g></g></g></svg>