<svg width="64" height="64" viewBox="0 0 64 64" fill="none" xmlns="http://www.w3.org/2000/svg">
    <path fill-rule="evenodd" clip-rule="evenodd"
          d="M32 64C49.6731 64 64 49.6731 64 32C64 14.3269 49.6731 0 32 0C14.3269 0 0 14.3269 0 32C0 49.6731 14.3269 64 32 64ZM25.8761 22.825C21.6565 27.0446 21.6565 33.9042 25.8761 38.1239C26.72 38.9678 28.1049 38.9678 28.9489 38.1239C29.8361 37.28 29.8361 35.8951 28.9489 35.0511C26.3955 32.5193 26.3955 28.4079 28.9489 25.8761L36.5875 18.2375C39.1193 15.6841 43.2307 15.6841 45.7625 18.2375C48.3159 20.7693 48.3159 24.8807 45.7625 27.4125L44.7455 28.4512C45.3514 30.139 45.6327 31.9134 45.611 33.6879L48.8353 30.4636C53.0549 26.244 53.0549 19.3844 48.8353 15.1647C44.6156 10.9451 37.756 10.9451 33.5364 15.1647L25.8761 22.825ZM38.1239 25.8761C37.28 25.0322 35.8951 25.0322 35.0511 25.8761C34.1639 26.72 34.1639 28.1049 35.0511 28.9489C37.6045 31.4807 37.6045 35.5921 35.0511 38.1239L27.4125 45.7625C24.8807 48.3159 20.7693 48.3159 18.2375 45.7625C15.6841 43.2307 15.6841 39.1193 18.2375 36.5875L19.2545 35.5705C18.6486 33.861 18.3673 32.0866 18.389 30.3121L15.1647 33.5364C10.9451 37.756 10.9451 44.6156 15.1647 48.8353C19.3844 53.0549 26.244 53.0549 30.4636 48.8353L38.1239 41.175C42.3435 36.9554 42.3435 30.0958 38.1239 25.8761Z"
          fill="currentColor"/>
</svg>