<svg width="64" height="64" viewBox="0 0 64 64" fill="none" xmlns="http://www.w3.org/2000/svg">
<path fill-rule="evenodd" clip-rule="evenodd" d="M52.5832 22.5H35.1665V5.08334L52.5832 22.5ZM38.3332 0.333336H12.9998C9.48484 0.333336 6.6665 3.15167 6.6665 6.66667V57.3333C6.6665 60.8167 9.48484 63.6667 12.9998 63.6667H50.9998C52.6795 63.6667 54.2904 62.9994 55.4782 61.8117C56.6659 60.624 57.3332 59.013 57.3332 57.3333V19.3333L38.3332 0.333336ZM48 44C48 52.8366 40.8366 60 32 60C23.1634 60 16 52.8366 16 44C16 35.1634 23.1634 28 32 28C40.8366 28 48 35.1634 48 44ZM46.4327 44C46.4327 51.9709 39.9709 58.4327 32 58.4327C24.0291 58.4327 17.5673 51.9709 17.5673 44C17.5673 36.0291 24.0291 29.5673 32 29.5673C39.9709 29.5673 46.4327 36.0291 46.4327 44ZM26.0368 47.3634C25.755 47.2007 25.4861 47.0243 25.2304 46.8355C26.2296 47.2619 27.2829 47.452 28.3203 47.4245C27.7094 45.7806 27.6402 44.0292 28.0511 42.4004C25.1769 43.4205 23.1185 46.1637 23.1185 49.3878C23.1185 51.8173 24.2873 53.9737 26.0934 55.3256C23.0756 54.0238 20.9634 51.0218 20.9634 47.5265C20.9634 42.8377 24.7644 39.0367 29.4532 39.0367C29.5551 39.0367 29.6565 39.0385 29.7575 39.0421C30.3811 38.2932 31.1451 37.6397 32.0383 37.1241C32.3201 36.9613 32.6074 36.8166 32.8987 36.6896C32.0068 37.3591 31.3021 38.2023 30.8047 39.1437C32.5811 39.4279 34.1736 40.2632 35.4012 41.4686C36.0082 38.4372 34.6631 35.2259 31.8372 33.5944C29.7332 32.3797 27.2812 32.3137 25.2075 33.2018C27.8437 31.2393 31.4996 30.911 34.5266 32.6587C38.5872 35.003 39.9785 40.1953 37.6341 44.2559C37.5667 44.3727 37.4969 44.4872 37.4249 44.5995C37.76 45.512 37.943 46.4979 37.943 47.5265C37.943 47.852 37.9247 48.1731 37.889 48.4889C37.7549 47.3798 37.3759 46.3461 36.8076 45.4436C35.6655 46.8189 34.1457 47.7622 32.4919 48.2081C34.8134 50.2265 38.249 50.6561 41.0624 49.0318C43.1664 47.817 44.4496 45.7266 44.7173 43.4866C45.0988 46.7508 43.5551 50.0811 40.5281 51.8288C36.4675 54.1732 31.2752 52.7819 28.9308 48.7213C28.862 48.6021 28.7964 48.4819 28.734 48.3609C27.8094 48.1895 26.8977 47.8604 26.0368 47.3634ZM34.5503 43.7198C33.7487 45.1081 32.5658 46.139 31.2103 46.7566C31.115 46.6149 31.0238 46.4689 30.9371 46.3187C30.1515 44.958 29.8463 43.4518 29.969 41.9965C30.1544 41.9826 30.3418 41.9755 30.5307 41.9755C32.1078 41.9755 33.5699 42.468 34.7714 43.3077C34.7025 43.4464 34.6288 43.5838 34.5503 43.7198Z" fill="currentColor"/>
</svg>
