<?xml version="1.0" encoding="UTF-8" standalone="no"?>
<!DOCTYPE svg PUBLIC "-//W3C//DTD SVG 1.1//EN" "http://www.w3.org/Graphics/SVG/1.1/DTD/svg11.dtd">
<svg width="100%" height="100%" viewBox="0 0 24 24" version="1.1" xmlns="http://www.w3.org/2000/svg" xmlns:xlink="http://www.w3.org/1999/xlink" xml:space="preserve" xmlns:serif="http://www.serif.com/" style="fill-rule:evenodd;clip-rule:evenodd;stroke-linejoin:round;stroke-miterlimit:2;">
    <path fill="#fefefe" d="M12,13.994C12.566,13.98 13.018,14.432 13.004,14.998C13.004,15.55 12.552,16.002 12,16.002C9.242,16.002 7.001,13.761 7.001,11.003L7.001,5.997C7.001,3.239 9.242,0.997 12,0.997C14.758,0.997 16.999,3.239 16.999,5.997L16.999,8.104C16.426,7.517 15.755,7.029 15.005,6.675L14.998,6.004C15.005,4.342 13.662,2.999 12,3.006C10.338,2.999 8.995,4.342 9.002,6.004L9.002,10.996C8.995,12.658 10.338,14.001 12,13.994M10.996,9.002C10.996,8.45 11.448,7.998 12,7.998C14.758,7.998 16.999,10.239 16.999,12.997L16.999,18.003C16.999,20.761 14.758,23.003 12,23.003C9.242,23.003 7.001,20.761 7.001,18.003L7.001,15.896C7.574,16.483 8.245,16.971 9.002,17.332L9.002,17.996C8.995,19.658 10.338,21.001 12,20.994C13.662,21.001 15.005,19.658 14.998,17.996L14.998,13.004C15.005,11.342 13.662,9.999 12,10.006C11.434,10.02 10.982,9.568 10.996,9.002Z" style="fill-rule:nonzero;"/>
</svg>
