<svg width="200" height="200" viewBox="0 0 200 200" fill="none" xmlns="http://www.w3.org/2000/svg">
<g clip-path="url(#clip0_2059_1533)">
<path fill-rule="evenodd" clip-rule="evenodd" d="M199.5 100C199.5 154.952 154.952 199.5 100 199.5C45.0477 199.5 0.5 154.952 0.5 100C0.5 45.0477 45.0477 0.5 100 0.5C154.952 0.5 199.5 45.0477 199.5 100ZM148.434 57.8122L131.544 80.5368C110.067 66.4429 78.9084 74.4967 81.2077 102.684C83.5069 130.872 116.778 132.215 134.899 118.121L149.997 142.187C125.354 159.468 90.7819 163.867 65.1029 145.638C51.5272 136 42.8187 118.045 43.6259 98.6576C44.2061 84.7227 49.232 73.2351 57.0492 64.4295C80.6364 37.8603 121.609 36.5266 148.434 57.8122Z" fill="#FAFAFA"/>
</g>
<defs>
<clipPath id="clip0_2059_1533">
<rect width="200" height="200" fill="white"/>
</clipPath>
</defs>
</svg>
