<svg width="64" height="64" viewBox="0 0 64 64"
     xmlns="http://www.w3.org/2000/svg">
    <path fill="currentColor"
          d="M35.1665 22.5H52.5832L35.1665 5.08334V22.5ZM12.9998 0.333336H38.3332L57.3332 19.3333V57.3333C57.3332 59.013 56.6659 60.624 55.4782 61.8117C54.2904 62.9994 52.6795 63.6667 50.9998 63.6667H12.9998C9.48484 63.6667 6.6665 60.8167 6.6665 57.3333V6.66667C6.6665 3.15167 9.48484 0.333336 12.9998 0.333336ZM13.3798 43.0833L25.2232 54.9267L29.7198 50.4617L22.3415 43.0833L29.7198 35.705L25.2232 31.24L13.3798 43.0833ZM48.7198 43.0833L36.8765 31.24L32.3798 35.705L39.7582 43.0833L32.3798 50.4617L36.8765 54.9267L48.7198 43.0833Z"/>
</svg>
