<svg width="24" height="24" viewBox="0 0 490 490" fill="none" xmlns="http://www.w3.org/2000/svg">
<path fill-rule="evenodd" clip-rule="evenodd" d="M245 490C380.31 490 490 380.31 490 245C490 109.69 380.31 0 245 0C109.69 0 0 109.69 0 245C0 380.31 109.69 490 245 490ZM245 466C367.055 466 466 367.055 466 245C466 122.945 367.055 24 245 24C122.945 24 24 122.945 24 245C24 367.055 122.945 466 245 466Z" fill="currentColor"/>
<path d="M335.174 313.737C335.72 308.9 336 303.983 336 299C336 227.203 277.797 169 206 169C134.203 169 76 227.203 76 299C76 352.522 108.344 398.49 154.553 418.423C126.898 397.723 109 364.702 109 327.5C109 264.816 159.816 214 222.5 214C280.526 214 328.381 257.543 335.174 313.737Z" fill="currentColor"/>
<path d="M141.339 288.419C145.255 291.31 149.373 294.011 153.688 296.502C215.866 332.401 295.373 311.097 331.271 248.919C367.17 186.741 345.866 107.234 283.688 71.3359C237.337 44.5749 181.356 49.602 140.989 79.6531C172.743 66.0533 210.289 67.0639 242.506 85.6647C296.793 117.007 315.392 186.422 284.05 240.709C255.037 290.96 193.4 310.633 141.339 288.419Z" fill="currentColor"/>
<path d="M258.759 133.059C254.297 135.004 249.898 137.22 245.583 139.712C183.405 175.61 162.102 255.117 198 317.295C233.899 379.473 313.405 400.777 375.583 364.878C421.935 338.117 445.572 287.122 439.73 237.138C435.631 271.438 415.983 303.448 383.765 322.049C329.479 353.391 260.063 334.792 228.721 280.505C199.708 230.254 213.49 167.038 258.759 133.059Z" fill="currentColor"/>
</svg>
