<svg width="34" height="34" viewBox="0 0 34 34" fill="none" xmlns="http://www.w3.org/2000/svg">
<path d="M16.3429 27.9475C16.6708 27.6196 17.2023 27.6196 17.5301 27.9475V27.9475C18.3497 28.767 18.3497 30.0958 17.5301 30.9154V30.9154C17.2023 31.2432 16.6708 31.2432 16.3429 30.9154L15.4942 30.0667C15.1434 29.7158 15.1434 29.147 15.4942 28.7962L16.3429 27.9475Z" stroke="white" stroke-linejoin="round"/>
<path d="M9.56265 8.302C9.92107 7.92899 10.5204 7.93556 10.8712 8.31568L12.3087 9.87329C12.6455 10.2383 12.6225 10.8075 12.257 11.1438L5.48258 17.3752L11.7121 24.3137C12.011 24.6467 11.9972 25.1555 11.6808 25.4719C11.3667 25.7861 10.862 25.8026 10.5285 25.509L1.73453 17.7678C1.34546 17.4251 1.32593 16.8249 1.69254 16.4583L9.56265 8.302Z" stroke="white" stroke-linejoin="round"/>
<path d="M20.7933 6.25445C21.1442 5.90387 21.7131 5.90371 22.0638 6.25445C25.7072 9.89779 33.0004 17.1353 33.0004 17.1353L22.1869 27.9478C21.6611 28.4736 21.0805 28.112 20.6625 27.6939C19.76 26.7898 22.6869 23.7075 24 22C25.5898 19.9328 27.1693 17.3707 27.1693 17.3707L19.5404 8.69586C19.228 8.34022 19.245 7.80328 19.5795 7.46832L20.7933 6.25445Z" stroke="white" stroke-linejoin="round"/>
<rect x="16.937" y="17.3541" width="4.93012" height="4.93012" rx="1.39834" transform="rotate(45 16.937 17.3541)" stroke="white" stroke-linejoin="round"/>
<path d="M15.9044 16.3212C16.4502 16.8673 16.4497 17.7522 15.9037 18.2982L15.0302 19.1717C14.1333 20.0683 12.6801 20.0683 11.7833 19.1717L10.9098 18.2982C10.3638 17.7522 10.3633 16.8673 10.9091 16.3212L12.4179 14.8124C12.964 14.2663 13.8495 14.2663 14.3956 14.8124L15.9044 16.3212Z" stroke="white" stroke-linejoin="round"/>
<rect x="16.937" y="10.2929" width="4.93012" height="4.93012" rx="1.39834" transform="rotate(45 16.937 10.2929)" stroke="white" stroke-linejoin="round"/>
<path d="M22.9654 16.3212C23.5112 16.8673 23.5107 17.7522 22.9647 18.2982L21.4559 19.807C20.9099 20.3527 20.0256 20.3527 19.4796 19.807L18.9237 19.2511C17.8515 18.1789 17.8509 16.4406 18.923 15.3683L19.4789 14.8124C20.025 14.2663 20.9105 14.2663 21.4566 14.8124L22.9654 16.3212Z" stroke="white" stroke-linejoin="round"/>
<path d="M16.3013 2.63523C16.6521 2.2844 17.2209 2.2844 17.5717 2.63523L19.4833 4.54675C19.8341 4.89758 19.8341 5.46638 19.4833 5.81721L17.5717 7.72874C17.2209 8.07956 16.6521 8.07956 16.3013 7.72874L15.3426 6.77004C14.4655 5.89298 14.4655 4.47098 15.3426 3.59392L16.3013 2.63523Z" stroke="white" stroke-linejoin="round"/>
</svg>
