<svg width="24" height="24" viewBox="0 0 24 24" fill="none"
     xmlns="http://www.w3.org/2000/svg">
    <path d="M9.6 15.8571L15.828 12L9.6 8.14286V15.8571ZM23.472 5.79C23.628 6.39429 23.736 7.20429 23.808 8.23286C23.892 9.26143 23.928 10.1486 23.928 10.92L24 12C24 14.8157 23.808 16.8857 23.472 18.21C23.172 19.3671 22.476 20.1129 21.396 20.4343C20.832 20.6014 19.8 20.7171 18.216 20.7943C16.656 20.8843 15.228 20.9229 13.908 20.9229L12 21C6.972 21 3.84 20.7943 2.604 20.4343C1.524 20.1129 0.828 19.3671 0.528 18.21C0.372 17.6057 0.264 16.7957 0.192 15.7671C0.108 14.7386 0.0719999 13.8514 0.0719999 13.08L0 12C0 9.18429 0.192 7.11429 0.528 5.79C0.828 4.63286 1.524 3.88714 2.604 3.56571C3.168 3.39857 4.2 3.28286 5.784 3.20571C7.344 3.11571 8.772 3.07714 10.092 3.07714L12 3C17.028 3 20.16 3.20571 21.396 3.56571C22.476 3.88714 23.172 4.63286 23.472 5.79Z"
          fill="#F6F6F6"/>
</svg>
