<svg width="128" height="128" viewBox="0 0 128 128" fill="none" xmlns="http://www.w3.org/2000/svg">
<rect width="128" height="128" fill="#BBA592"/>
<g clip-path="url(#clip0_2466_145457)">
<path fill-rule="evenodd" clip-rule="evenodd" d="M116.5 33.0625V44.3125H104.781V61.1875L93.5312 52.8225V44.3125H82.2812L66.8125 33.0625H116.5Z" fill="#422612"/>
<path d="M21.3438 33.0625V49.5392L60.7188 33.0625L116.5 74.3125H98.6875L65.3989 50.5674V74.3125H54.1489V47.6377L27.4375 59.7812L48.5312 74.3125L30.7188 74.3125L21.3438 67.8095V74.3125L10.5625 74.3125V33.0625L21.3438 33.0625Z" fill="#422612"/>
<path d="M52.75 50.875L44.3125 51.8125L46.6562 48.0625L74.7812 49.4688V52.75L68.2188 51.3438L62.5938 61.1875L56.9688 57.9062L52.75 50.875Z" fill="#422612"/>
<path d="M61.6426 36.8369C64.047 38.7051 67.3472 41.1237 70.0967 43.0928C71.469 44.0756 72.695 44.9394 73.5938 45.5605C74.0448 45.8723 74.4047 46.117 74.6553 46.2822C74.7825 46.3661 74.8667 46.4193 74.9141 46.4482C74.9396 46.4639 74.9353 46.4609 74.9121 46.4482C74.9008 46.4421 74.8664 46.4234 74.8174 46.4004C74.8046 46.3944 74.7633 46.3752 74.7012 46.3506L74.458 46.2695L73.3242 50.8164L64.6787 48.8516L62.2227 53.0059L60.1895 56.4424L58.1797 52.9922L54.4043 46.5127L39.6787 49.8789L38.2432 45.4355L59.292 36.5293L60.5576 35.9932L61.6426 36.8369Z" fill="white" stroke="#422612" stroke-width="4.6875" stroke-linecap="round"/>
<path d="M87.3491 95.8693L93.0625 95.8693L94.4687 92.5936L88.8437 88.8437L85.5625 89.3124L82.75 92.1249L81.5943 93.7753L87.3491 95.8693Z" fill="#3D3D3D"/>
<path d="M75.25 69.1562L74.3125 77.125L69.625 82.75L78.0625 86.9688L93.5312 84.1562L82.75 72.9062L75.25 69.1562Z" fill="#3D3D3D"/>
<path d="M10.0938 81.9297C10.0938 83.1016 10.0938 84.2734 10.0938 85.4453C11.905 85.5005 13.7754 85.5623 15.6232 85.6283C23.191 85.9017 30.7684 86.2323 38.3006 86.7203C42.0625 86.9675 45.8198 87.2518 49.5453 87.644C51.3968 87.8415 53.2329 88.0635 55.0186 88.3547C55.9355 88.505 56.79 88.6663 57.5804 88.8648C57.7834 88.916 57.9497 88.9625 58.1245 89.0155C58.3123 89.0719 58.4649 89.1257 58.5712 89.17C58.6989 89.22 58.7764 89.2701 58.7066 89.242C58.6623 89.22 58.5539 89.1665 58.3707 89.0032C58.1995 88.8564 57.6587 88.2818 57.5446 87.3655C57.467 86.9463 57.6241 86.4358 57.7238 86.2756C57.8225 86.0989 57.8215 86.1234 57.732 86.1803C57.5508 86.31 57.1083 86.5619 56.6177 86.7863C55.6218 87.2471 54.3961 87.6958 53.1319 88.1736C51.861 88.6566 50.5237 89.1601 49.1012 89.8682C47.7012 90.6603 46.0031 91.2835 44.4472 93.9467C43.8203 95.0871 43.5702 96.7669 43.8606 98.0812C44.366 100.503 46.0951 101.758 47.1464 102.385C48.3162 103.058 49.2278 103.366 50.1513 103.663C51.9607 104.219 53.571 104.529 55.1663 104.83C58.3518 105.413 61.3494 105.859 64.2477 106.435C69.8142 107.403 76.0856 109.752 76.6099 111.688C76.7764 112.16 76.7555 112.433 76.6563 113.219C81.0313 113.219 85.4062 113.219 89.7812 113.219C89.708 110.298 88.6319 106.819 86.5631 104.322C79.0329 96.4981 71.7044 97.5175 65.4479 96.7538C62.2638 96.5709 59.1804 96.5196 56.2557 96.3308C54.8109 96.2356 53.398 96.1027 52.2381 95.8745C51.6656 95.7643 51.1691 95.6155 50.9487 95.5301C50.8491 95.4982 50.8366 95.4841 50.9461 95.6195C51.0534 95.7482 51.2676 96.0981 51.3269 96.4813C51.3657 96.6726 51.2729 97.1614 51.1631 97.2853C51.0389 97.449 51.1182 97.2414 51.3871 97.0103C51.6506 96.771 52.0581 96.4858 52.5226 96.2088C53.4521 95.6529 54.5974 95.1132 55.7954 94.5645C57.0024 94.0079 58.2715 93.4603 59.6586 92.7061C60.3603 92.3138 61.0912 91.8979 61.9384 91.1686C62.3548 90.7986 62.8375 90.3263 63.2736 89.5841C63.7212 88.8471 64.0593 87.6677 63.8929 86.572C63.7604 85.4495 63.0554 84.635 62.7142 84.3362C62.3821 84.0344 62.0795 83.8455 61.7976 83.6913C61.3234 83.4403 60.9853 83.3231 60.6155 83.2012C60.3188 83.1075 60.0181 83.027 59.7051 82.9529C59.4153 82.8852 59.1707 82.8358 58.8894 82.7824C57.809 82.5823 56.8377 82.4656 55.8107 82.3569C53.8266 82.1542 51.9081 82.0377 49.9828 81.9429C46.1195 81.758 42.3052 81.6812 38.4931 81.6383C30.867 81.5599 23.2537 81.6309 15.6506 81.7897C13.7942 81.8293 11.9164 81.8749 10.0938 81.9297Z" fill="#1F4C8F"/>
</g>
<defs>
<clipPath id="clip0_2466_145457">
<rect width="120" height="120" fill="white" transform="translate(4 4)"/>
</clipPath>
</defs>
</svg>
