<?xml version="1.0" encoding="utf-8"?>
<!-- Generator: Adobe Illustrator 21.1.0, SVG Export Plug-In . SVG Version: 6.00 Build 0)  -->
<svg version="1.1" id="Calque_1" xmlns="http://www.w3.org/2000/svg" xmlns:xlink="http://www.w3.org/1999/xlink" x="0px" y="0px"
	 viewBox="0 0 720 720" style="enable-background:new 0 0 720 720;" xml:space="preserve" fill="#fafafa">
<style type="text/css">
	.st0{fill-rule:evenodd;clip-rule:evenodd;}
</style>
<rect x="323.6" y="37.7" transform="matrix(0.7072 -0.707 0.707 0.7072 53.6311 274.686)" class="st0" width="69.7" height="69.7"/>
<polygon class="st0" points="68.5,271.5 268.3,77.6 342.4,150.3 313.2,179.6 272.7,142.2 221.3,195.5 316,288.4 285.4,317.9 
	189,226.2 137.2,276 260,397.3 229.4,428 "/>
<rect x="219.6" y="297.2" transform="matrix(0.7072 -0.707 0.707 0.7072 -157.4853 259.0765)" class="st0" width="28.9" height="44.9"/>
<rect x="298.3" y="299.9" transform="matrix(0.7072 -0.707 0.707 0.7072 -149.5652 358.8327)" class="st0" width="120.3" height="120.3"/>
<rect x="311.5" y="313.1" transform="matrix(0.7072 -0.707 0.707 0.7072 -149.5652 358.8333)" class="st0" width="93.9" height="93.9"/>
<rect x="34.6" y="325.1" transform="matrix(0.7072 -0.707 0.707 0.7072 -234.1949 154.4709)" class="st0" width="69.7" height="69.7"/>
<polygon class="st0" points="74.4,450.1 147.2,376 176.4,405.3 139,445.8 192.3,497.1 285.3,402.5 314.8,433.1 223.1,529.4 
	272.9,581.2 394.3,458.4 424.9,489 268.3,649.9 "/>
<rect x="294.1" y="469.9" transform="matrix(0.7072 -0.707 0.707 0.7072 -249.7496 365.627)" class="st0" width="44.9" height="28.9"/>
<rect x="323.6" y="612.6" transform="matrix(0.7072 -0.707 0.707 0.7072 -352.761 442.9781)" class="st0" width="69.7" height="69.7"/>
<polygon class="st0" points="374.5,569.7 403.8,540.4 444.3,577.8 495.6,524.5 401,431.6 431.5,402.1 527.9,493.8 579.7,444 
	456.9,322.7 487.5,292 648.5,448.5 448.6,642.4 "/>
<rect x="468.4" y="377.9" transform="matrix(0.7072 -0.707 0.707 0.7072 -141.6458 458.5805)" class="st0" width="28.9" height="44.9"/>
<rect x="617.3" y="325.1" transform="matrix(0.7072 -0.707 0.707 0.7072 -63.5709 566.4896)" class="st0" width="69.7" height="69.7"/>
<polygon class="st0" points="545.2,314.7 582.6,274.2 529.3,222.9 436.3,317.5 406.8,286.9 498.5,190.6 448.7,138.8 327.3,261.6 
	296.7,231 453.3,70.1 647.2,269.9 574.4,344 "/>
<rect x="382.6" y="221.2" transform="matrix(0.7072 -0.707 0.707 0.7072 -48.0147 355.3277)" class="st0" width="44.9" height="28.9"/>
</svg>
