<?xml version="1.0" encoding="UTF-8" standalone="no"?>
<!DOCTYPE svg PUBLIC "-//W3C//DTD SVG 1.1//EN" "http://www.w3.org/Graphics/SVG/1.1/DTD/svg11.dtd">
<svg width="100%" height="100%" viewBox="0 0 256 256" version="1.1" xmlns="http://www.w3.org/2000/svg" xmlns:xlink="http://www.w3.org/1999/xlink" xml:space="preserve" xmlns:serif="http://www.serif.com/" style="fill-rule:evenodd;clip-rule:evenodd;stroke-linejoin:round;stroke-miterlimit:2;">
    <g transform="matrix(1.48554,1.48554,-1.48554,1.48554,69.2237,-91.6044)">
        <path d="M68.566,19.576C68.566,17.842 67.158,16.434 65.424,16.434L59.141,16.434C57.408,16.434 56,17.842 56,19.576L56,25.859C56,27.592 57.408,29 59.141,29L65.424,29C67.158,29 68.566,27.592 68.566,25.859L68.566,19.576Z" style="fill:white;"/>
    </g>
    <g transform="matrix(-1.48554,-1.48554,1.48554,-1.48554,186.776,347.604)">
        <path d="M68.566,19.576C68.566,17.842 67.158,16.434 65.424,16.434L59.141,16.434C57.408,16.434 56,17.842 56,19.576L56,25.859C56,27.592 57.408,29 59.141,29L65.424,29C67.158,29 68.566,27.592 68.566,25.859L68.566,19.576Z" style="fill:white;"/>
    </g>
    <g transform="matrix(1.48554,1.48554,-6.82421,6.82421,130.712,-153.092)">
        <path d="M68.566,17.118C68.566,16.741 67.158,16.434 65.424,16.434L59.141,16.434C57.408,16.434 56,16.741 56,17.118L56,28.316C56,28.694 57.408,29 59.141,29L65.424,29C67.158,29 68.566,28.694 68.566,28.316L68.566,17.118Z" style="fill:white;"/>
    </g>
    <g transform="matrix(-1.48554,-1.48554,6.82421,-6.82421,125.288,409.092)">
        <path d="M68.566,17.118C68.566,16.741 67.158,16.434 65.424,16.434L59.141,16.434C57.408,16.434 56,16.741 56,17.118L56,28.316C56,28.694 57.408,29 59.141,29L65.424,29C67.158,29 68.566,28.694 68.566,28.316L68.566,17.118Z" style="fill:white;"/>
    </g>
    <g transform="matrix(0.583333,0.583333,-0.583333,0.583333,128,-21.3333)">
        <path d="M109,224L169.343,224C173.758,224 177.343,220.415 177.343,216L177.343,200C177.343,195.585 173.758,192 169.343,192L115.801,192C110,192 110,185.469 109.999,185.469L110,114C110,110 114,110 114,110L120,110C124.415,110 128,106.415 128,102L128,85C128,80.585 124.415,77 120,77L85.999,77C81.584,77 77.999,80.585 77.999,85L78,192C78,192 78,224 109,224Z" style="fill:white;"/>
    </g>
    <g transform="matrix(0.583333,0.583333,-0.583333,0.583333,128,-21.3333)">
        <path d="M146.342,32L85.999,32C81.584,32 77.999,35.585 77.999,40L77.999,56C77.999,60.415 81.584,64 85.999,64L139.541,64C145.342,64 145.342,70.531 145.343,70.531L145.342,142C145.342,146 141.342,146 141.342,146L136,146C131.585,146 128,149.585 128,154L128,171C128,175.415 131.585,179 136,179L169.343,179C173.758,179 177.343,175.415 177.343,171L177.342,64C177.342,64 177.342,32 146.342,32Z" style="fill:white;"/>
    </g>
</svg>
