<svg width="80%" height="80%" viewBox="0 0 630 153" version="1.1" xmlns="http://www.w3.org/2000/svg" xmlns:xlink="http://www.w3.org/1999/xlink" xml:space="preserve" xmlns:serif="http://www.serif.com/" style="fill-rule:evenodd;clip-rule:evenodd;">
    <path d="M15,97L153,97C160.732,97 167,103.268 167,111L167,138C167,145.732 160.732,152 153,152L15,152C7.268,152 1,145.732 1,138L1,111C1,103.268 7.268,97 15,97ZM246,97L384,97C391.732,97 398,103.268 398,111L398,138C398,145.732 391.732,152 384,152L246,152C238.268,152 232,145.732 232,138L232,111C232,103.268 238.268,97 246,97ZM246,1L384,1C391.732,1 398,7.268 398,15L398,42C398,49.732 391.732,56 384,56L246,56C238.268,56 232,49.732 232,42L232,15C232,7.268 238.268,1 246,1ZM477,97L615,97C622.732,97 629,103.268 629,111L629,138C629,145.732 622.732,152 615,152L477,152C469.268,152 463,145.732 463,138L463,111C463,103.268 469.268,97 477,97Z" style="fill:none;fill-rule:nonzero;stroke:currentColor;stroke-width:2px;"/>
    <path d="M231.454,126.575C232.039,125.99 232.039,125.04 231.454,124.454L221.908,114.908C221.322,114.322 220.372,114.322 219.786,114.908C219.201,115.494 219.201,116.444 219.786,117.029L228.272,125.515L219.786,134C219.201,134.586 219.201,135.535 219.786,136.121C220.372,136.707 221.322,136.707 221.908,136.121L231.454,126.575ZM316.454,57.454C315.868,56.868 314.918,56.868 314.332,57.454L304.786,67C304.201,67.586 304.201,68.536 304.786,69.121C305.372,69.707 306.322,69.707 306.908,69.121L315.393,60.636L323.878,69.121C324.464,69.707 325.414,69.707 326,69.121C326.585,68.536 326.585,67.586 326,67L316.454,57.454ZM462.454,126.575C463.039,125.99 463.039,125.04 462.454,124.454L452.908,114.908C452.322,114.322 451.372,114.322 450.786,114.908C450.201,115.494 450.201,116.444 450.786,117.029L459.272,125.515L450.786,134C450.201,134.586 450.201,135.535 450.786,136.121C451.372,136.707 452.322,136.707 452.908,136.121L462.454,126.575ZM168.393,127.015L230.393,127.015L230.393,124.015L168.393,124.015L168.393,127.015ZM316.893,96.515L316.893,58.515L313.893,58.515L313.893,96.515L316.893,96.515ZM399.393,127.015L461.393,127.015L461.393,124.015L399.393,124.015L399.393,127.015Z" style="fill:currentColor;fill-rule:nonzero;"/>
    <rect x="55.73" y="114.938" width="3.516" height="17.063" style="fill:currentColor;fill-rule:nonzero;"/>
    <path d="M65.41,119.32L65.515,120.785C66.422,119.652 67.637,119.086 69.16,119.086C70.504,119.086 71.504,119.48 72.16,120.27C72.816,121.059 73.152,122.238 73.168,123.809L73.168,132L69.781,132L69.781,123.891C69.781,123.172 69.625,122.652 69.312,122.332C69,122.004 68.48,121.84 67.754,121.84C66.801,121.84 66.086,122.246 65.609,123.059L65.609,132L62.223,132L62.223,119.32L65.41,119.32Z" style="fill:currentColor;fill-rule:nonzero;"/>
    <path d="M87.16,125.777C87.16,127.73 86.715,129.297 85.824,130.477C84.941,131.648 83.746,132.234 82.238,132.234C80.957,132.234 79.922,131.789 79.133,130.898L79.133,136.875L75.746,136.875L75.746,119.32L78.887,119.32L79.004,120.562C79.824,119.578 80.894,119.086 82.215,119.086C83.777,119.086 84.992,119.664 85.859,120.82C86.726,121.977 87.16,123.57 87.16,125.602L87.16,125.777ZM83.773,125.531C83.773,124.352 83.562,123.441 83.14,122.801C82.726,122.16 82.121,121.84 81.324,121.84C80.262,121.84 79.531,122.246 79.133,123.059L79.133,128.25C79.547,129.086 80.285,129.504 81.348,129.504C82.965,129.504 83.773,128.18 83.773,125.531Z" style="fill:currentColor;fill-rule:nonzero;"/>
    <path d="M96.863,130.711C96.027,131.727 94.871,132.234 93.394,132.234C92.035,132.234 90.996,131.844 90.277,131.062C89.566,130.281 89.203,129.137 89.187,127.629L89.187,119.32L92.574,119.32L92.574,127.512C92.574,128.832 93.176,129.492 94.379,129.492C95.527,129.492 96.316,129.094 96.746,128.297L96.746,119.32L100.144,119.32L100.144,132L96.957,132L96.863,130.711Z" style="fill:currentColor;fill-rule:nonzero;"/>
    <path d="M106.754,116.203L106.754,119.32L108.922,119.32L108.922,121.805L106.754,121.805L106.754,128.133C106.754,128.602 106.844,128.938 107.023,129.141C107.203,129.344 107.547,129.445 108.055,129.445C108.43,129.445 108.762,129.418 109.051,129.363L109.051,131.93C108.387,132.133 107.703,132.234 107,132.234C104.625,132.234 103.414,131.035 103.367,128.637L103.367,121.805L101.515,121.805L101.515,119.32L103.367,119.32L103.367,116.203L106.754,116.203Z" style="fill:currentColor;fill-rule:nonzero;"/>
    <path d="M267.547,127.078L269.844,114.938L273.348,114.938L269.562,132L266.023,132L263.246,120.586L260.469,132L256.93,132L253.144,114.938L256.648,114.938L258.957,127.055L261.769,114.938L264.746,114.938L267.547,127.078Z" style="fill:currentColor;fill-rule:nonzero;"/>
    <path d="M274.133,125.543C274.133,124.285 274.375,123.164 274.859,122.18C275.344,121.195 276.039,120.434 276.945,119.895C277.859,119.355 278.918,119.086 280.121,119.086C281.832,119.086 283.226,119.609 284.305,120.656C285.391,121.703 285.996,123.125 286.121,124.922L286.144,125.789C286.144,127.734 285.601,129.297 284.516,130.477C283.43,131.648 281.973,132.234 280.144,132.234C278.316,132.234 276.855,131.648 275.762,130.477C274.676,129.305 274.133,127.711 274.133,125.695L274.133,125.543ZM277.519,125.789C277.519,126.992 277.746,127.914 278.199,128.555C278.652,129.188 279.301,129.504 280.144,129.504C280.965,129.504 281.605,129.191 282.066,128.566C282.527,127.934 282.758,126.926 282.758,125.543C282.758,124.363 282.527,123.449 282.066,122.801C281.605,122.152 280.957,121.828 280.121,121.828C279.293,121.828 278.652,122.152 278.199,122.801C277.746,123.441 277.519,124.438 277.519,125.789Z" style="fill:currentColor;fill-rule:nonzero;"/>
    <path d="M295.355,122.496C294.894,122.434 294.488,122.402 294.137,122.402C292.855,122.402 292.016,122.836 291.617,123.703L291.617,132L288.23,132L288.23,119.32L291.43,119.32L291.523,120.832C292.203,119.668 293.144,119.086 294.348,119.086C294.723,119.086 295.074,119.137 295.402,119.238L295.355,122.496Z" style="fill:currentColor;fill-rule:nonzero;"/>
    <path d="M301.601,126.914L300.383,128.133L300.383,132L296.996,132L296.996,114L300.383,114L300.383,123.973L301.039,123.129L304.285,119.32L308.351,119.32L303.769,124.605L308.75,132L304.859,132L301.601,126.914Z" style="fill:currentColor;fill-rule:nonzero;"/>
    <path d="M316.684,128.496C316.684,128.082 316.476,127.758 316.062,127.523C315.656,127.281 315,127.066 314.094,126.879C311.078,126.246 309.57,124.965 309.57,123.035C309.57,121.91 310.035,120.973 310.965,120.223C311.902,119.465 313.125,119.086 314.633,119.086C316.242,119.086 317.527,119.465 318.488,120.223C319.457,120.98 319.941,121.965 319.941,123.176L316.555,123.176C316.555,122.691 316.398,122.293 316.086,121.98C315.773,121.66 315.285,121.5 314.621,121.5C314.051,121.5 313.609,121.629 313.297,121.887C312.984,122.145 312.828,122.473 312.828,122.871C312.828,123.246 313.004,123.551 313.355,123.785C313.715,124.012 314.316,124.211 315.16,124.383C316.004,124.547 316.715,124.734 317.293,124.945C319.082,125.602 319.976,126.738 319.976,128.355C319.976,129.512 319.48,130.449 318.488,131.168C317.496,131.879 316.215,132.234 314.644,132.234C313.582,132.234 312.637,132.047 311.808,131.672C310.988,131.289 310.344,130.77 309.875,130.113C309.406,129.449 309.172,128.734 309.172,127.969L312.383,127.969C312.414,128.57 312.637,129.031 313.051,129.352C313.465,129.672 314.019,129.832 314.715,129.832C315.363,129.832 315.851,129.711 316.18,129.469C316.516,129.219 316.684,128.895 316.684,128.496Z" style="fill:currentColor;fill-rule:nonzero;"/>
    <path d="M333.582,125.777C333.582,127.73 333.137,129.297 332.246,130.477C331.363,131.648 330.168,132.234 328.66,132.234C327.379,132.234 326.344,131.789 325.555,130.898L325.555,136.875L322.168,136.875L322.168,119.32L325.308,119.32L325.426,120.562C326.246,119.578 327.316,119.086 328.637,119.086C330.199,119.086 331.414,119.664 332.281,120.82C333.148,121.977 333.582,123.57 333.582,125.602L333.582,125.777ZM330.195,125.531C330.195,124.352 329.984,123.441 329.562,122.801C329.148,122.16 328.543,121.84 327.746,121.84C326.684,121.84 325.953,122.246 325.555,123.059L325.555,128.25C325.969,129.086 326.707,129.504 327.769,129.504C329.387,129.504 330.195,128.18 330.195,125.531Z" style="fill:currentColor;fill-rule:nonzero;"/>
    <path d="M343.039,132C342.883,131.695 342.769,131.316 342.699,130.863C341.879,131.777 340.812,132.234 339.5,132.234C338.258,132.234 337.226,131.875 336.406,131.156C335.594,130.438 335.187,129.531 335.187,128.438C335.187,127.094 335.684,126.062 336.676,125.344C337.676,124.625 339.117,124.262 341,124.254L342.558,124.254L342.558,123.527C342.558,122.941 342.406,122.473 342.101,122.121C341.805,121.77 341.332,121.594 340.684,121.594C340.113,121.594 339.664,121.73 339.336,122.004C339.016,122.277 338.855,122.652 338.855,123.129L335.469,123.129C335.469,122.395 335.695,121.715 336.148,121.09C336.601,120.465 337.242,119.977 338.07,119.625C338.898,119.266 339.828,119.086 340.859,119.086C342.422,119.086 343.66,119.48 344.574,120.27C345.496,121.051 345.957,122.152 345.957,123.574L345.957,129.07C345.965,130.273 346.133,131.184 346.461,131.801L346.461,132L343.039,132ZM340.238,129.645C340.738,129.645 341.199,129.535 341.621,129.316C342.043,129.09 342.355,128.789 342.558,128.414L342.558,126.234L341.293,126.234C339.598,126.234 338.695,126.82 338.586,127.992L338.574,128.191C338.574,128.613 338.723,128.961 339.019,129.234C339.316,129.508 339.723,129.645 340.238,129.645Z" style="fill:currentColor;fill-rule:nonzero;"/>
    <path d="M353.832,129.504C354.457,129.504 354.965,129.332 355.355,128.988C355.746,128.645 355.949,128.188 355.965,127.617L359.141,127.617C359.133,128.477 358.898,129.266 358.437,129.984C357.976,130.695 357.344,131.25 356.539,131.648C355.742,132.039 354.859,132.234 353.891,132.234C352.078,132.234 350.648,131.66 349.601,130.512C348.555,129.355 348.031,127.762 348.031,125.73L348.031,125.508C348.031,123.555 348.551,121.996 349.59,120.832C350.629,119.668 352.055,119.086 353.867,119.086C355.453,119.086 356.723,119.539 357.676,120.445C358.637,121.344 359.125,122.543 359.141,124.043L355.965,124.043C355.949,123.387 355.746,122.855 355.355,122.449C354.965,122.035 354.449,121.828 353.808,121.828C353.019,121.828 352.422,122.117 352.016,122.695C351.617,123.266 351.418,124.195 351.418,125.484L351.418,125.836C351.418,127.141 351.617,128.078 352.016,128.648C352.414,129.219 353.019,129.504 353.832,129.504Z" style="fill:currentColor;fill-rule:nonzero;"/>
    <path d="M366.91,132.234C365.051,132.234 363.535,131.664 362.363,130.523C361.199,129.383 360.617,127.863 360.617,125.965L360.617,125.637C360.617,124.363 360.863,123.227 361.355,122.227C361.848,121.219 362.543,120.445 363.441,119.906C364.348,119.359 365.379,119.086 366.535,119.086C368.269,119.086 369.633,119.633 370.625,120.727C371.625,121.82 372.125,123.371 372.125,125.379L372.125,126.762L364.051,126.762C364.16,127.59 364.488,128.254 365.035,128.754C365.59,129.254 366.289,129.504 367.133,129.504C368.437,129.504 369.457,129.031 370.191,128.086L371.855,129.949C371.348,130.668 370.66,131.23 369.793,131.637C368.926,132.035 367.965,132.234 366.91,132.234ZM366.523,121.828C365.851,121.828 365.305,122.055 364.883,122.508C364.469,122.961 364.203,123.609 364.086,124.453L368.797,124.453L368.797,124.184C368.781,123.434 368.578,122.855 368.187,122.449C367.797,122.035 367.242,121.828 366.523,121.828Z" style="fill:currentColor;fill-rule:nonzero;"/>
    <path d="M274.789,36L274.789,18.938L280.039,18.938C281.539,18.938 282.879,19.277 284.058,19.957C285.246,20.629 286.172,21.59 286.836,22.84C287.5,24.082 287.832,25.496 287.832,27.082L287.832,27.867C287.832,29.453 287.504,30.863 286.848,32.098C286.199,33.332 285.281,34.289 284.094,34.969C282.906,35.648 281.566,35.992 280.074,36L274.789,36ZM278.305,21.785L278.305,33.176L280.004,33.176C281.379,33.176 282.43,32.727 283.156,31.828C283.883,30.93 284.254,29.645 284.269,27.973L284.269,27.07C284.269,25.336 283.91,24.023 283.191,23.133C282.473,22.234 281.422,21.785 280.039,21.785L278.305,21.785Z" style="fill:currentColor;fill-rule:nonzero;"/>
    <path d="M293.75,36L290.351,36L290.351,23.32L293.75,23.32L293.75,36ZM290.152,20.039C290.152,19.531 290.32,19.113 290.656,18.785C291,18.457 291.465,18.293 292.051,18.293C292.629,18.293 293.09,18.457 293.434,18.785C293.777,19.113 293.949,19.531 293.949,20.039C293.949,20.555 293.773,20.977 293.422,21.305C293.078,21.633 292.621,21.797 292.051,21.797C291.48,21.797 291.019,21.633 290.668,21.305C290.324,20.977 290.152,20.555 290.152,20.039Z" style="fill:currentColor;fill-rule:nonzero;"/>
    <path d="M303.418,32.496C303.418,32.082 303.211,31.758 302.797,31.523C302.391,31.281 301.734,31.066 300.828,30.879C297.812,30.246 296.305,28.965 296.305,27.035C296.305,25.91 296.769,24.973 297.699,24.223C298.637,23.465 299.859,23.086 301.367,23.086C302.976,23.086 304.262,23.465 305.223,24.223C306.191,24.98 306.676,25.965 306.676,27.176L303.289,27.176C303.289,26.691 303.133,26.293 302.82,25.98C302.508,25.66 302.019,25.5 301.355,25.5C300.785,25.5 300.344,25.629 300.031,25.887C299.719,26.145 299.562,26.473 299.562,26.871C299.562,27.246 299.738,27.551 300.09,27.785C300.449,28.012 301.051,28.211 301.894,28.383C302.738,28.547 303.449,28.734 304.027,28.945C305.816,29.602 306.711,30.738 306.711,32.356C306.711,33.512 306.215,34.449 305.223,35.168C304.23,35.879 302.949,36.234 301.379,36.234C300.316,36.234 299.371,36.047 298.543,35.672C297.723,35.289 297.078,34.77 296.609,34.113C296.141,33.449 295.906,32.734 295.906,31.969L299.117,31.969C299.148,32.57 299.371,33.031 299.785,33.352C300.199,33.672 300.754,33.832 301.449,33.832C302.098,33.832 302.586,33.711 302.914,33.469C303.25,33.219 303.418,32.895 303.418,32.496Z" style="fill:currentColor;fill-rule:nonzero;"/>
    <path d="M320.316,29.777C320.316,31.731 319.871,33.297 318.98,34.477C318.098,35.648 316.902,36.234 315.394,36.234C314.113,36.234 313.078,35.789 312.289,34.898L312.289,40.875L308.902,40.875L308.902,23.32L312.043,23.32L312.16,24.563C312.98,23.578 314.051,23.086 315.371,23.086C316.934,23.086 318.148,23.664 319.016,24.82C319.883,25.977 320.316,27.57 320.316,29.602L320.316,29.777ZM316.93,29.531C316.93,28.352 316.719,27.441 316.297,26.801C315.883,26.16 315.277,25.84 314.48,25.84C313.418,25.84 312.687,26.246 312.289,27.059L312.289,32.25C312.703,33.086 313.441,33.504 314.504,33.504C316.121,33.504 316.93,32.18 316.93,29.531Z" style="fill:currentColor;fill-rule:nonzero;"/>
    <rect x="322.601" y="18" width="3.399" height="18" style="fill:currentColor;fill-rule:nonzero;"/>
    <path d="M336.148,36C335.992,35.695 335.879,35.316 335.808,34.863C334.988,35.777 333.922,36.234 332.609,36.234C331.367,36.234 330.336,35.875 329.516,35.156C328.703,34.438 328.297,33.531 328.297,32.438C328.297,31.094 328.793,30.063 329.785,29.344C330.785,28.625 332.226,28.262 334.109,28.254L335.668,28.254L335.668,27.527C335.668,26.941 335.516,26.473 335.211,26.121C334.914,25.77 334.441,25.594 333.793,25.594C333.223,25.594 332.773,25.73 332.445,26.004C332.125,26.277 331.965,26.652 331.965,27.129L328.578,27.129C328.578,26.395 328.805,25.715 329.258,25.09C329.711,24.465 330.351,23.977 331.18,23.625C332.008,23.266 332.937,23.086 333.969,23.086C335.531,23.086 336.769,23.48 337.684,24.27C338.605,25.051 339.066,26.152 339.066,27.574L339.066,33.07C339.074,34.273 339.242,35.184 339.57,35.801L339.57,36L336.148,36ZM333.348,33.645C333.848,33.645 334.308,33.535 334.73,33.316C335.152,33.09 335.465,32.789 335.668,32.414L335.668,30.234L334.402,30.234C332.707,30.234 331.805,30.82 331.695,31.992L331.684,32.191C331.684,32.613 331.832,32.961 332.129,33.234C332.426,33.508 332.832,33.645 333.348,33.645Z" style="fill:currentColor;fill-rule:nonzero;"/>
    <path d="M346.215,31.207L348.558,23.32L352.191,23.32L347.094,37.969L346.812,38.637C346.055,40.293 344.805,41.121 343.062,41.121C342.57,41.121 342.07,41.047 341.562,40.898L341.562,38.332L342.078,38.344C342.719,38.344 343.195,38.246 343.508,38.051C343.828,37.856 344.078,37.531 344.258,37.078L344.656,36.035L340.215,23.32L343.859,23.32L346.215,31.207Z" style="fill:currentColor;fill-rule:nonzero;"/>
    <path d="M522.699,123.855C522.699,125.535 522.402,127.008 521.808,128.273C521.215,129.539 520.363,130.516 519.254,131.203C518.152,131.891 516.887,132.234 515.457,132.234C514.043,132.234 512.781,131.895 511.672,131.215C510.562,130.535 509.703,129.566 509.094,128.309C508.484,127.043 508.176,125.59 508.168,123.949L508.168,123.105C508.168,121.426 508.469,119.949 509.07,118.676C509.68,117.394 510.535,116.414 511.637,115.734C512.746,115.047 514.012,114.703 515.434,114.703C516.855,114.703 518.117,115.047 519.219,115.734C520.328,116.414 521.184,117.394 521.785,118.676C522.394,119.949 522.699,121.422 522.699,123.094L522.699,123.855ZM519.137,123.082C519.137,121.293 518.816,119.934 518.176,119.004C517.535,118.074 516.621,117.609 515.434,117.609C514.254,117.609 513.344,118.07 512.703,118.992C512.062,119.906 511.738,121.25 511.73,123.023L511.73,123.855C511.73,125.598 512.051,126.949 512.691,127.91C513.332,128.871 514.254,129.352 515.457,129.352C516.637,129.352 517.543,128.891 518.176,127.969C518.808,127.039 519.129,125.688 519.137,123.914L519.137,123.082Z" style="fill:currentColor;fill-rule:nonzero;"/>
    <path d="M532.625,130.711C531.789,131.727 530.633,132.234 529.156,132.234C527.797,132.234 526.758,131.844 526.039,131.062C525.328,130.281 524.965,129.137 524.949,127.629L524.949,119.32L528.336,119.32L528.336,127.512C528.336,128.832 528.937,129.492 530.141,129.492C531.289,129.492 532.078,129.094 532.508,128.297L532.508,119.32L535.906,119.32L535.906,132L532.719,132L532.625,130.711Z" style="fill:currentColor;fill-rule:nonzero;"/>
    <path d="M542.516,116.203L542.516,119.32L544.684,119.32L544.684,121.805L542.516,121.805L542.516,128.133C542.516,128.602 542.605,128.938 542.785,129.141C542.965,129.344 543.308,129.445 543.816,129.445C544.191,129.445 544.523,129.418 544.812,129.363L544.812,131.93C544.148,132.133 543.465,132.234 542.762,132.234C540.387,132.234 539.176,131.035 539.129,128.637L539.129,121.805L537.277,121.805L537.277,119.32L539.129,119.32L539.129,116.203L542.516,116.203Z" style="fill:currentColor;fill-rule:nonzero;"/>
    <path d="M557.984,125.777C557.984,127.73 557.539,129.297 556.648,130.477C555.766,131.648 554.57,132.234 553.062,132.234C551.781,132.234 550.746,131.789 549.957,130.898L549.957,136.875L546.57,136.875L546.57,119.32L549.711,119.32L549.828,120.562C550.648,119.578 551.719,119.086 553.039,119.086C554.601,119.086 555.816,119.664 556.684,120.82C557.551,121.977 557.984,123.57 557.984,125.602L557.984,125.777ZM554.598,125.531C554.598,124.352 554.387,123.441 553.965,122.801C553.551,122.16 552.945,121.84 552.148,121.84C551.086,121.84 550.355,122.246 549.957,123.059L549.957,128.25C550.371,129.086 551.109,129.504 552.172,129.504C553.789,129.504 554.598,128.18 554.598,125.531Z" style="fill:currentColor;fill-rule:nonzero;"/>
    <path d="M567.687,130.711C566.851,131.727 565.695,132.234 564.219,132.234C562.859,132.234 561.82,131.844 561.101,131.062C560.391,130.281 560.027,129.137 560.012,127.629L560.012,119.32L563.398,119.32L563.398,127.512C563.398,128.832 564,129.492 565.203,129.492C566.351,129.492 567.141,129.094 567.57,128.297L567.57,119.32L570.969,119.32L570.969,132L567.781,132L567.687,130.711Z" style="fill:currentColor;fill-rule:nonzero;"/>
    <path d="M577.578,116.203L577.578,119.32L579.746,119.32L579.746,121.805L577.578,121.805L577.578,128.133C577.578,128.602 577.668,128.938 577.848,129.141C578.027,129.344 578.371,129.445 578.879,129.445C579.254,129.445 579.586,129.418 579.875,129.363L579.875,131.93C579.211,132.133 578.527,132.234 577.824,132.234C575.449,132.234 574.238,131.035 574.191,128.637L574.191,121.805L572.34,121.805L572.34,119.32L574.191,119.32L574.191,116.203L577.578,116.203Z" style="fill:currentColor;fill-rule:nonzero;"/>
</svg>
